<svg width="104" height="36" viewBox="0 0 104 36" fill="none" xmlns="http://www.w3.org/2000/svg" class="w-[80px] sm:w-auto sm:h-auto">
<g clip-path="url(#clip0_11757_6566)"><path d="M13.4507 21.5375H10.1564V20.8771C9.13964 21.6726 7.90494 22.0626 6.6443 22.0626C3.40711 22.0626 0.00390625 19.5877 0.00390625 15.3502C0.00390625 11.1126 3.40711 8.6377 6.6443 8.6377C7.90494 8.6377 9.14482 9.02245 10.1564 9.82316V9.16284H13.4507V21.5427V21.5375ZM6.72212 11.4922C4.82857 11.4922 3.29298 13.2236 3.29298 15.345C3.29298 17.4663 4.82857 19.1977 6.72212 19.1977C8.61567 19.1977 10.1513 17.4663 10.1513 15.345C10.1513 13.2236 8.61567 11.4922 6.72212 11.4922Z" fill="#165BAD"></path>
<path d="M30.4676 22.4068C30.4676 26.1192 27.4483 28.8748 23.7442 28.8748C21.2489 28.8748 19.0804 27.5282 17.9235 25.516L20.6938 23.8938C21.2696 25.1313 22.4213 25.984 23.739 25.984C25.6326 25.984 27.1682 24.5281 27.1682 22.4068V20.509C26.1514 21.3045 24.9167 21.6944 23.656 21.6944C20.4188 21.6944 17.0156 19.2195 17.0156 14.982C17.0156 10.7445 20.4188 8.26953 23.656 8.26953C24.9167 8.26953 26.1514 8.65429 27.1682 9.455V8.79467H30.4624V22.412L30.4676 22.4068ZM23.739 11.1292C21.8455 11.1292 20.3099 12.8606 20.3099 14.982C20.3099 17.1034 21.8455 18.8348 23.739 18.8348C25.6326 18.8348 27.1682 17.1034 27.1682 14.982C27.1682 12.8606 25.6326 11.1292 23.739 11.1292Z" fill="#165BAD"></path>
<path d="M37.5989 4.47857H34.3047V0.901367H37.5989V4.47857ZM37.5989 21.5379H34.3047V9.15805H37.5989V21.5379Z" fill="#165BAD"></path>
<path d="M44.7396 0.901367H41.4453V21.5379H44.7396V0.901367Z" fill="#165BAD"></path>
<path d="M60.3804 21.5371H57.0861V20.9027C56.2613 21.7814 55.0836 22.0882 53.9838 22.0882C51.2654 22.0882 48.5781 19.9408 48.5781 16.8316V9.15723H51.8724V16.8316C51.8724 18.1522 52.8892 19.1141 54.3418 19.1141C55.8774 19.1141 57.0861 17.9027 57.0861 16.53V9.15723H60.3804V21.5371Z" fill="#165BAD"></path>
<path d="M71.5485 13.0877C71.0816 11.8762 69.904 11.2991 68.8612 11.2991C67.9015 11.2991 67.0766 11.793 67.0766 12.6769C67.0766 13.1709 67.4034 13.5036 68.0934 13.6648L70.5057 14.19C72.2903 14.6059 74.1839 15.3442 74.1839 17.9335C74.1839 20.658 71.6315 22.1139 68.9961 22.1139C66.6097 22.1139 64.1662 20.9024 63.3984 18.4275L66.0338 17.4656C66.6097 18.7863 67.8755 19.3634 68.9701 19.3634C70.0648 19.3634 70.9986 18.8123 70.9986 17.8764C70.9986 17.4344 70.6717 17.1328 69.9818 16.9665L67.5643 16.4413C65.7796 16.0566 63.9432 15.2299 63.9432 12.6457C63.9432 10.0616 66.3295 8.60059 68.856 8.60059C71.1075 8.60059 73.4368 9.70286 74.1787 11.9282L71.5433 13.0825L71.5485 13.0877Z" fill="#165BAD"></path>
<path d="M93.3802 20.8563H95.8703C95.8963 20.8563 97.022 20.8563 97.048 20.8667L103.751 14.2114L97.1517 7.66016H93.4736L100.005 14.2062L93.375 20.8511L93.3802 20.8563Z" fill="#80C289"></path>
<path d="M86.1185 20.8563H88.6086C88.6346 20.8563 89.7603 20.8563 89.7862 20.8667L96.4889 14.2114L89.89 7.66016H86.217L92.7485 14.2062L86.1133 20.8511L86.1185 20.8563Z" fill="#FFCC00"></path>
<path d="M78.8555 20.8563H81.3456C81.3716 20.8563 82.4973 20.8563 82.5232 20.8667L89.2259 14.2114L82.627 7.66016H78.9592L85.4907 14.2062L78.8555 20.8563Z" fill="#E11722"></path>
<path d="M38.3806 32.3477H37.5972V31.6302C37.2029 32.1918 36.596 32.5453 35.8749 32.5453C34.609 32.5453 33.5352 31.4638 33.5352 30.138C33.5352 28.8121 34.6142 27.7306 35.8749 27.7306C36.6012 27.7306 37.2081 28.0842 37.5972 28.6457V24.9854H38.3806V32.3477ZM35.9527 28.4222C35.05 28.4222 34.3185 29.1865 34.3185 30.138C34.3185 31.0895 35.0552 31.8538 35.9527 31.8538C36.8502 31.8538 37.5972 31.0895 37.5972 30.138C37.5972 29.1865 36.8554 28.4222 35.9527 28.4222Z" fill="#165BAD"></path>
<path d="M42.6701 26.1656H41.8867V24.9854H42.6701V26.1656ZM42.6701 32.3529H41.8867V27.9334H42.6701V32.3529Z" fill="#165BAD"></path>
<path d="M50.7321 32.3476H49.9488V31.63C49.5545 32.1916 48.9475 32.5451 48.2264 32.5451C46.9606 32.5451 45.8867 31.4637 45.8867 30.1378C45.8867 28.8119 46.9658 27.7305 48.2264 27.7305C48.9527 27.7305 49.5597 28.084 49.9488 28.6456V27.928H50.7321V32.3476ZM48.3042 28.422C47.4016 28.422 46.6701 29.1863 46.6701 30.1378C46.6701 31.0893 47.4067 31.8536 48.3042 31.8536C49.2017 31.8536 49.9488 31.0893 49.9488 30.1378C49.9488 29.1863 49.2069 28.422 48.3042 28.422Z" fill="#165BAD"></path>
<path d="M58.7946 32.6966C58.7946 34.1992 57.5184 35.1039 56.2474 35.1039C55.4226 35.1039 54.6029 34.7192 54.1204 33.8976L54.7585 33.5337C55.1113 34.142 55.6975 34.4072 56.2682 34.4072C57.1501 34.4072 58.0113 33.7677 58.0113 32.6966V31.6359C57.617 32.1974 57.01 32.551 56.2889 32.551C55.0231 32.551 53.9492 31.4695 53.9492 30.1437C53.9492 28.8178 55.0283 27.7363 56.2889 27.7363C57.0152 27.7363 57.6222 28.0899 58.0113 28.6514V27.9339H58.7946V32.6966ZM56.3667 28.4227C55.4641 28.4227 54.7326 29.187 54.7326 30.1385C54.7326 31.09 55.4692 31.8543 56.3667 31.8543C57.2642 31.8543 58.0113 31.09 58.0113 30.1385C58.0113 29.187 57.2642 28.4227 56.3667 28.4227Z" fill="#165BAD"></path>
<path d="M66.3161 32.3482H65.5328V29.5509C65.5328 28.8854 65.0348 28.4123 64.3552 28.4123C63.6392 28.4123 63.0841 28.9894 63.0841 29.6809V32.3534H62.3008V27.9339H63.0841V28.4642C63.4058 27.9755 63.9453 27.7363 64.4849 27.7363C65.3979 27.7363 66.3161 28.3863 66.3161 29.5509V32.3482Z" fill="#165BAD"></path>
<path d="M71.9293 32.5451C70.6064 32.5451 69.5273 31.4637 69.5273 30.1378C69.5273 28.8119 70.6064 27.7305 71.9293 27.7305C73.2522 27.7305 74.3313 28.8119 74.3313 30.1378C74.3313 31.4637 73.2522 32.5451 71.9293 32.5451ZM71.9293 28.422C71.037 28.422 70.3107 29.1863 70.3107 30.1378C70.3107 31.0893 71.037 31.8536 71.9293 31.8536C72.8216 31.8536 73.5479 31.0893 73.5479 30.1378C73.5479 29.1863 72.8216 28.422 71.9293 28.422Z" fill="#165BAD"></path>
<path d="M79.0748 32.5451C78.2811 32.5451 77.4666 32.1708 77.2539 31.4533L77.9283 31.1881C78.1514 31.708 78.5664 31.8848 79.0437 31.8848C79.521 31.8848 80.0034 31.63 80.0034 31.1205C80.0034 30.8657 79.8271 30.6473 79.3861 30.5486L78.5612 30.3614C77.9128 30.221 77.4251 29.8622 77.4251 29.0927C77.4251 28.1724 78.2085 27.7305 79.023 27.7305C79.7648 27.7305 80.5326 28.0944 80.7349 28.8119L80.0605 29.0771C79.853 28.5936 79.412 28.3908 79.023 28.3908C78.5716 28.3908 78.1825 28.6456 78.1825 29.0979C78.1825 29.3163 78.3382 29.5971 78.6235 29.6595L79.4535 29.8466C80.1591 30.0026 80.7764 30.2886 80.7764 31.1413C80.7764 32.0928 79.936 32.5451 79.0696 32.5451" fill="#165BAD"></path>
<path d="M85.9477 28.6197H85.1644V32.3477H84.381V28.6197H83.5977V27.9334H84.381V24.9854H85.1644V27.9334H85.9477V28.6197Z" fill="#165BAD"></path>
<path d="M89.8498 26.1656H89.0664V24.9854H89.8498V26.1656ZM89.8498 32.3529H89.0664V27.9334H89.8498V32.3529Z" fill="#165BAD"></path>
<path d="M97.5175 31.3389C97.0558 32.0928 96.3035 32.5451 95.4527 32.5451C94.1298 32.5451 93.0508 31.4637 93.0508 30.1378C93.0508 28.8119 94.1298 27.7305 95.4527 27.7305C96.3035 27.7305 97.061 28.1828 97.5175 28.9367L96.8794 29.3007C96.5577 28.7288 96.039 28.4064 95.4424 28.4064C94.5293 28.4064 93.8341 29.1811 93.8341 30.1326C93.8341 31.0841 94.5293 31.8588 95.4424 31.8588C96.039 31.8588 96.5577 31.5364 96.8794 30.9645L97.5175 31.3285V31.3389Z" fill="#165BAD"></path>
<path d="M102.27 32.5451C101.476 32.5451 100.662 32.1708 100.449 31.4533L101.124 31.1881C101.347 31.708 101.762 31.8848 102.239 31.8848C102.716 31.8848 103.199 31.63 103.199 31.1205C103.199 30.8657 103.022 30.6473 102.581 30.5486L101.757 30.3614C101.108 30.221 100.62 29.8622 100.62 29.0927C100.62 28.1724 101.404 27.7305 102.218 27.7305C102.96 27.7305 103.728 28.0944 103.93 28.8119L103.256 29.0771C103.048 28.5936 102.607 28.3908 102.218 28.3908C101.767 28.3908 101.378 28.6456 101.378 29.0979C101.378 29.3163 101.533 29.5971 101.819 29.6595L102.649 29.8466C103.354 30.0026 103.972 30.2886 103.972 31.1413C103.972 32.0928 103.131 32.5451 102.265 32.5451" fill="#165BAD"></path></g>
<defs><clipPath id="clip0_11757_6566"><rect width="104" height="34.1966" fill="white" transform="translate(0 0.901367)">
</rect>
</clipPath>
</defs>
</svg>